<svg width="200" height="200" viewBox="0 0 200 200" xmlns="http://www.w3.org/2000/svg">
  <!-- Eye outline -->
  <ellipse cx="100" cy="100" rx="90" ry="50" fill="none" stroke="#2c5f5d" stroke-width="8"/>
  <ellipse cx="100" cy="100" rx="75" ry="35" fill="none" stroke="#2c5f5d" stroke-width="6"/>
  
  <!-- Globe/Earth -->
  <circle cx="100" cy="100" r="28" fill="#5c9b9a" stroke="#2c5f5d" stroke-width="3"/>
  
  <!-- Continents on globe -->
  <path d="M 85 90 Q 90 85 95 90 Q 100 88 105 92 Q 110 95 115 90 Q 112 100 108 105 Q 105 110 100 108 Q 95 110 90 105 Q 85 100 85 90 Z" fill="#2c5f5d"/>
  <path d="M 88 102 Q 92 105 96 103 Q 100 105 104 102" fill="none" stroke="#2c5f5d" stroke-width="2"/>
  <path d="M 90 95 Q 95 98 100 95 Q 105 98 110 95" fill="none" stroke="#2c5f5d" stroke-width="1.5"/>
  
  <!-- Pupil highlight -->
  <circle cx="95" cy="95" r="4" fill="#ffffff" opacity="0.8"/>
</svg>
